<?xml version="1.0" encoding="utf-8"?>
<!-- Generator: Adobe Illustrator 22.1.0, SVG Export Plug-In . SVG Version: 6.00 Build 0)  -->
<svg version="1.1" id="Warstwa_1" xmlns="http://www.w3.org/2000/svg" xmlns:xlink="http://www.w3.org/1999/xlink" x="0px" y="0px"
	 viewBox="0 0 31 23" style="enable-background:new 0 0 31 23;" xml:space="preserve">
<style type="text/css">
	.st0{fill:#FFFFFF;}
	.st1{fill:#FAFBF1;}
	.st2{fill:#B2C200;}
	.st3{fill:#CED860;}
	.st4{fill:#F2F4D5;}
</style>
<title>beef</title>
<g id="Warstwa_2_1_">
	<g id="beef">
		<rect class="st0" width="31" height="23"/>
		<path class="st1" d="M28.5,5.2l2,0.9v3.8c-0.8,5.5-4.8,8.1-9.6,8.9C14.3,20,7.3,21.3,1.7,15.3C0,11.4,1.6,8,3.6,4.8
			c3.1-3.5,7-4,12.9-1C20.5,5.7,24.3,6.4,28.5,5.2z"/>
		<g id="_dark_">
			<path class="st2" d="M2.3,14.6c4.7,4.1,11.4,5,17.5,3c0.8-0.3,1.3-0.4,1.9-0.6c1.3-0.6,2.5-1.3,3.6-2.1c3.7-2.8,4.9-9.3,5.5-9.2
				c0.2,0,0.1,0.7,0,1.6c-0.4,5.3,0.1,5.9-0.6,8.2c-0.3,1.2-0.8,2.4-1.6,3.4c-1.8,2.1-4.6,2.9-7.6,3.4c0,0-6.4,0.4-7.4,0.4
				S7.5,22.6,6.1,22s-4.3-2.6-4.8-5.4C1,15.6,0.5,14.5,2.3,14.6z"/>
			<path class="st2" d="M30.8,5.7c-4,2.4-10.2,1.2-14.1-0.6C12.5,3.3,8-0.1,3.7,5.3C2.9,5.4,2.4,5.3,2.9,4.3c2.8-4.6,6.8-3.5,10.5-2
				C18.2,4.3,25.5,6,30.8,5.7z"/>
			<path class="st2" d="M8,9.3c2-0.9,2.6-1.2,3.3-1.5c1.7-0.6,2.2-4.2,4.8-2.3s3.6,4.7,4,7.7c0.2,1.9-1.4,2.8-3,2.9
				c-2.5,0.2-5,0.2-7.4-0.2c-2.4-0.4-5.3-0.8-5.8-3.8C3.3,8.7,5,6.1,7.5,4c1-0.8,2.3-1.4,3.4-0.3c1.4,1.4-0.4,2.1-1,3
				C9.6,7.2,9.2,7.7,8,9.3z"/>
			<path class="st2" d="M25,8c1.6,0,3.1,0.2,2.7,1.9c-0.4,2.3-2.1,4.3-4.3,4.3s-1-2.5-1.4-3.9C21.3,7.4,24.2,8.8,25,8z"/>
		</g>
		<path id="_light_" class="st3" d="M3.2,3.8L4,4.7c-1.2,3.2-3.9,6-1.7,9.8c-1,0.4-0.9,1.3-1.1,2.1C-0.4,12,0.6,7.7,3.2,3.8z"/>
		<path class="st4" d="M18,12.5c-0.4,1.4-1,2.1-2.3,2c-1.7-0.1-3.2-0.9-3.3-2.5c-0.1-1.4,1.4-1.2,2.5-1.2
			C16.3,10.8,17.5,11.2,18,12.5z"/>
	</g>
</g>
</svg>
