<svg xmlns="http://www.w3.org/2000/svg" viewBox="0 0 25 21"><title>cheese</title><g id="Warstwa_2" data-name="Warstwa 2"><g id="cheese"><rect width="25" height="21" style="fill:#fff"/><g id="_dark_" data-name="&lt;dark&gt;"><path d="M13,19.39c-2.88,0-8.63.09-8.63.09s-2-1.26-2.07-2.7c1.29-1.24,2-2.47,1-4.46-1.26-2.64-.61-5.58-.45-8.39.06-1.07.4-2.31,1.85-2.38a36.93,36.93,0,0,1,8.58.63c3.3.63,5.17,2.44,5,6.16,0,1,0,2,0,3.05C18.37,17.41,18.23,17.61,13,19.39Z" style="fill:#b2c200"/><path d="M18.82,19.4H15.41c.75-2.15,2.56-3.76,2.61-6.32.08-4.69.31-9.23-5.75-10.48-.4-.08-.41-.66-.27-1.08h4.26c3,.75,6.61.87,6.38,5.44,0,2.32,0,4.63,0,7C22.76,16.71,21.86,18.8,18.82,19.4Z" style="fill:#b2c200"/></g><g id="_light_" data-name="&lt;light&gt;"><path d="M12,1.52c8.17,3.91,9.65,11.69,3.41,17.88H12.86c4.06-2.8,5.5-7.07,4.24-11.94-.62-2.43-2.46-3.35-4.46-4A25.12,25.12,0,0,0,3.51,2.4c-.22-.19-.3-.39-.23-.58s.14-.3.21-.3Z" style="fill:#e8edb6"/><path d="M14.66,13.82c-.93-.11-1.64-.55-1.73-1.52a1.67,1.67,0,0,1,1.71-1.94c1.15,0,1.76.7,1.69,1.91C16.26,13.31,15.56,13.66,14.66,13.82Z" style="fill:#f3f5d9"/><path d="M10.76,15.18A1.35,1.35,0,0,1,9.6,16.66a1.31,1.31,0,1,1-.35-2.6C10.06,13.93,10.52,14.45,10.76,15.18Z" style="fill:#ecefc1"/><path d="M8.43,6.25A1.36,1.36,0,0,1,6.91,7.36c-.86-.1-1.07-.76-1-1.51a1,1,0,0,1,1.15-.93A1.38,1.38,0,0,1,8.43,6.25Z" style="fill:#f4f7df"/></g></g></g></svg>