<svg xmlns="http://www.w3.org/2000/svg" viewBox="0 0 27.09 18.14"><title>chicken</title><g id="Warstwa_2" data-name="Warstwa 2"><g id="chicken"><g id="_dark_" data-name="&lt;dark&gt;"><path d="M5.11,18.14,2.85,15H27.09L26,18.14Z" style="fill:#b2c20f"/><path d="M12.32,3a3.15,3.15,0,0,0-.8.11L10.4,2.33a1.94,1.94,0,0,1-.61-1.12,1.6,1.6,0,0,0-.48-1,1,1,0,0,0-1.39.3,1,1,0,0,0-.11.86,1,1,0,0,0-.74.45,1,1,0,0,0,.3,1.39,1.56,1.56,0,0,0,1.07.08,1.88,1.88,0,0,1,1.14.13l1.17.76c0,1.55,1.68,4.21,3.34,5.29a5.14,5.14,0,0,0,2.86.89,2.74,2.74,0,0,0,2.33-1.19c1-1.51.08-3.43-1.86-4.68A10.52,10.52,0,0,0,12.32,3Z" style="fill:#b2c20f"/><path d="M22.43,9.81a14.72,14.72,0,0,0-2.49-2.5,3.2,3.2,0,0,1-1.25-1.19c-2.06,0-4-.14-5.29-1.33-1.81-1.62-5,2.32-6.7,4,.15,1.38.45.85-.32,2.3-1.89,3.52.14,3.36,2.67,3.35,5.08,0,10.16,0,15.24,0A14.91,14.91,0,0,0,22.43,9.81Z" style="fill:#b2c20f"/><path d="M6,5.61a3.57,3.57,0,0,0-.9.06L3.9,4.76a2.24,2.24,0,0,1-.58-1.31,1.81,1.81,0,0,0-.44-1.22,1.14,1.14,0,0,0-1.59.21,1.13,1.13,0,0,0-.19,1,1.14,1.14,0,0,0-.87.44A1.13,1.13,0,0,0,.44,5.41a1.73,1.73,0,0,0,1.19.19,2.11,2.11,0,0,1,1.27.24l1.24,1C4,8.53,5.65,11.66,7.42,13a5.79,5.79,0,0,0,3.12,1.24,3.06,3.06,0,0,0,2.71-1.13c1.22-1.6.39-3.82-1.67-5.4A12,12,0,0,0,6,5.61Z" style="fill:#b2c20f"/></g><path d="M3.87,7.54a4.49,4.49,0,0,1,.3-1.49A6.05,6.05,0,0,1,6,5.2Z" style="fill:#fff"/><path d="M10.62,4.85a4.54,4.54,0,0,1,.3-1.49,6.05,6.05,0,0,1,1.82-.85Z" style="fill:#fff"/><path d="M24.27,14.4C24,8.82,17.74,4.62,10.31,5" style="fill:none;stroke:#fff;stroke-miterlimit:10;stroke-width:0.25px"/><path d="M12.1,9.73a3.28,3.28,0,0,0-3-3.5" style="fill:none;stroke:#fff;stroke-miterlimit:10;stroke-width:0.25px"/></g></g></svg>