<svg xmlns="http://www.w3.org/2000/svg" viewBox="0 0 272.59 189.12"><title>fish</title><g id="Warstwa_2" data-name="Warstwa 2"><g id="fish"><g id="_dark_" data-name="&lt;dark&gt;"><g id="Layer_5" data-name="Layer 5"><path d="M248,85.08c.86-2.84,6.7-14.83,12-27.27l0,0c1.19-2.81,2.35-5.63,3.43-8.38l.09-.23.06-.16c.12-.31,10.62-14.92,8.84-18.54-.72-1.47-4-2.19-14,0h0a138.68,138.68,0,0,0-12.81,12c-11.54,12-35,29.55-35,29.55s-4.08,3.42-6.78.81c-13.62-13.16-33.46-36.55-59.62-49.57-.43-.22-1-.73-.24-1.81L196.3,41c-6.15-13.28-13.4-19.3-19-22.33-3.69-2-16-7.49-21.91-10.56S150.93,5.68,149.47,5c-16.73-7.67-36.19-5.26-43.2-1.18-3.34,2-6.77,3.74-10.16,5.61a13.91,13.91,0,0,1-4.77,1.88C36.85,14.2,0,76.18,0,100.7c13.74.48,24,7,.71,9,2.07,11.89,9.05,21.47,25.93,33.86.42-.11,31.38,23.31,53.89,27,1.82.3,25.51,23.83,49.41,17.52,12.64-3.34,18.65-4.49,21.4-5.66,2.39-1,1.25-2.2,1.25-2.2l-12-14.79a1.84,1.84,0,0,1,.52-2.76c26.6-11.73,47.63-30.21,60.16-46,1.68-2.14,6.07,2.94,9.2,5.39,10.39,8.13,53.53,35.69,57.08,29.85a2.7,2.7,0,0,0,0-2.23C261.52,129.85,239.58,113,248,85.08ZM44.12,83.18c-3.84,0-6.95-4.91-6.95-11s3.11-11,6.95-11,7,4.91,7,11S48,83.18,44.12,83.18ZM84.65,168c-.43.6,0-4.08.25-5.37,0,0,16.33-15.65,17.73-48.3,1.05-24.46-1.33-31.13-1.33-31.13s-1.1-3.87-.74-3.18C104.31,87,127.83,107.84,84.65,168Z" style="fill:#b3c204"/></g></g></g></g></svg>