<svg xmlns="http://www.w3.org/2000/svg" viewBox="0 0 22.74 22.74"><title>vegetables</title><g id="Warstwa_2" data-name="Warstwa 2"><g id="broccoli"><rect width="22.74" height="22.74" style="fill:#fdfefc"/><g id="_dark_" data-name="&lt;dark&gt;"><path d="M21.52,11.33a24.65,24.65,0,0,1,.13-3.09c0-.43,0-.87,0-1.3,0,0,0,0,0-.07-.15-1.08-.09-2.17-.18-3.25-1.72-1.93-1.45-.54-4-1.75l-3.76-.72c-.91,0-1.82,0-2.73,0a.53.53,0,0,1-.26-.05c-.39,0-.77,0-1.1,0l-2.19.08C5.57,2.14,2.05,4.89,3.06,8c1.11,3.41.15,6.11-1.54,8.89a.88.88,0,0,1-.05.15.48.48,0,0,1,0,.12.53.53,0,0,1,.05.18c.2.45.77.87.77,1.33a6.27,6.27,0,0,0,1.43,2.18h.19A.56.56,0,0,1,4.4,21h0a.66.66,0,0,1,.15,0,.8.8,0,0,1,.15,0,.6.6,0,0,1,.24.05l.12,0a.52.52,0,0,1,.36.08L6.27,21c.44-.06.89-.05,1.33-.08L8,20.77a13.33,13.33,0,0,1,8.37-1.22,6,6,0,0,0,5.09-1.15c0-.27,0-.54.05-.81.06-1.6,0-3.17.2-4.75A9.77,9.77,0,0,1,21.52,11.33Z" style="fill:#b3c204"/></g><path d="M21.63,11.4a20.29,20.29,0,0,1,.1-2.69c0-.05,0-.09,0-.15,0-.55,0-1.1,0-1.65,0,0,0,0,0-.06-.19-1.37,0-2.76-.28-4.11a.65.65,0,0,1,.26-.65c0-.08,0-.16,0-.24a.72.72,0,0,1,0-.33l-.62-.11A33.38,33.38,0,0,0,15.83,1s-.05,0-.08,0a36.34,36.34,0,0,1-4.17.16,6.33,6.33,0,0,1-1.27.14c1.07,1.45,3.88-1.34,4.45.53S14,6.56,17.26,4c2.1-1.63,4.07,1.57,3.1,3.05s2.23,1.15.1,3.71c0,1,2.57,1,.18,4.21-.94,1.26.63,2.18-2.39,2.19s-1.81.42-2.82,1a1.81,1.81,0,0,1-2.09-.4c-2.33-3.69-4.14-1-5.7.78-2,2.32-1.54,3-2.67,2.05s-2.77-2.57-3.4-3.19a.57.57,0,0,1,0,.18.34.34,0,0,1,.07.16c.08.46.44.74.38,1.25a.75.75,0,0,1-.33.56,1.21,1.21,0,0,1,0,.19c0,.16,0,.91.16,1a.89.89,0,0,1,.25.16h0a.58.58,0,0,1,.33-.08,4,4,0,0,0,.6,0,.29.29,0,0,1,.1,0l.1,0a1.25,1.25,0,0,1,.74.09c.2.11.28.43.49.07,0,0,0,.13,0,.13s.13.11.18.12.11-.31.12-.25c.08.22.16.14.24,0s.07.21.12.21.26-.06.36,0a7.32,7.32,0,0,0,1.94-.05c.94-.07.58-.18,1.41-.51a.53.53,0,0,1,.76.44L11.17,21c3.45-.16,6.8-1,10.22-1.2.08-.75.09-1.5.18-2.25.21-1.63.11-3.26.31-4.89A7,7,0,0,1,21.63,11.4Z" style="fill:#fff"/><path d="M11.24,1.23c.39,0,.72-.05,1-.08L11,1.17a.58.58,0,0,1-.38-.12.82.82,0,0,1-.29.07c-2.67.09-5.48.18-8.18.49a28.65,28.65,0,0,1-.3,5.06.54.54,0,0,1,.24.68,9,9,0,0,0-.37,2.88c0,.24,0,.49,0,.73.13.55.32,1.09.52,1.7a.54.54,0,0,1-.33.71v0a12.85,12.85,0,0,0-.15,2.77.55.55,0,0,1-.23.46.65.65,0,0,1,0,.31c1.89-1.25,2.79-3.61,4.15-5.45A1.67,1.67,0,0,0,5.8,9.54C4.64,7.18,4.51,3.4,6.29,4S2.18,1.79,11.24,1.23Z" style="fill:#fff"/><path d="M8.13,13.17C9,11,8.76,8.75,9.94,7.5c.61.79.06,2.07.07,2.69s1.48-.49,1.22.15A13.86,13.86,0,0,1,8.13,13.17Z" style="fill:#eff2cd"/><path d="M13,12.25c-.3.76-.69,1.42-1.47,1.38a1.34,1.34,0,0,1-.28-.91,4.21,4.21,0,0,1,1.28-1.18C12.81,11.39,13.15,11.71,13,12.25Z" style="fill:#e9edb8"/></g></g></svg>