<svg xmlns="http://www.w3.org/2000/svg" width="23" height="27" viewBox="0 0 23 27">
  <metadata><?xpacket begin="﻿" id="W5M0MpCehiHzreSzNTczkc9d"?>
<x:xmpmeta xmlns:x="adobe:ns:meta/" x:xmptk="Adobe XMP Core 5.6-c138 79.159824, 2016/09/14-01:09:01        ">
   <rdf:RDF xmlns:rdf="http://www.w3.org/1999/02/22-rdf-syntax-ns#">
      <rdf:Description rdf:about=""/>
   </rdf:RDF>
</x:xmpmeta>
                                                                                                    
                                                                                                    
                                                                                                    
                                                                                                    
                                                                                                    
                                                                                                    
                                                                                                    
                                                                                                    
                                                                                                    
                                                                                                    
                                                                                                    
                                                                                                    
                                                                                                    
                                                                                                    
                                                                                                    
                                                                                                    
                                                                                                    
                                                                                                    
                                                                                                    
                                                                                                    
                           
<?xpacket end="w"?></metadata>
<defs>
    <style>
      .cls-1 {
        fill: #bababa;
        fill-rule: evenodd;
      }
    </style>
  </defs>
  <path id="print" class="cls-1" d="M1693,742h-2v-2h1v-2h-19v2h1v2h-2a1,1,0,0,1-1-1V731c0-.967,4-2,11-2h1c6.94,0,11,1.01,11,2v10A1,1,0,0,1,1693,742Zm-2.5-10a1.5,1.5,0,1,0,1.5,1.5A1.5,1.5,0,0,0,1690.5,732Zm-15.5-9a1,1,0,0,1,1-1h13a1,1,0,0,1,1,1v5h-15v-5Zm15,25a1,1,0,0,1-1,1h-13a1,1,0,0,1-1-1v-9h15v9Zm-2-8h-11v1h11v-1Zm0,2h-11v1h11v-1Zm0,2h-11v1h11v-1Zm0,2h-11v1h11v-1Z" transform="translate(-1671 -722)"/>
</svg>
