<?xml version="1.0" encoding="utf-8"?>
<!-- Generator: Adobe Illustrator 22.1.0, SVG Export Plug-In . SVG Version: 6.00 Build 0)  -->
<svg version="1.1" id="Warstwa_1" xmlns="http://www.w3.org/2000/svg" xmlns:xlink="http://www.w3.org/1999/xlink" x="0px" y="0px"
	 viewBox="0 0 96.6 68.7" style="enable-background:new 0 0 96.6 68.7;" xml:space="preserve">
<style type="text/css">
	.st0{fill:#FF801A;}
</style>
<title>menu_1</title>
<g id="Warstwa_2_1_">
	<g id="Warstwa_1-2">
		<line class="st0" x1="5.8" y1="6" x2="90.8" y2="6"/>
		<path class="st0" d="M5.8,12h85c7.7,0,7.7-12,0-12h-85C-1.9,0-1.9,12,5.8,12z"/>
		<line class="st0" x1="5.8" y1="34.3" x2="90.8" y2="34.3"/>
		<path class="st0" d="M5.8,40.3h85c7.7,0,7.7-12,0-12h-85C-1.9,28.3-1.9,40.3,5.8,40.3z"/>
		<line class="st0" x1="5.8" y1="62.7" x2="90.8" y2="62.7"/>
		<path class="st0" d="M5.8,68.7h85c7.7,0,7.7-12,0-12h-85C-1.9,56.7-1.9,68.7,5.8,68.7z"/>
	</g>
</g>
</svg>
